# xmcd
#
# Track frame offsets:
#	150
#	11122
#	22698
#	34885
#	49847
#	64099
#	77322
#	91866
#	106291
#	118989
#	135163
#	150020
#	164098
#	174972
#	189219
#	199294
#	211712
#	224746
#	238162
#	251449
#
# Disc length: 3511 seconds
#
# Revision: 0
# Processed by: cddbd v1.5.2PL0 Copyright (c) Steve Scherf et al.
# Submitted via: EasyCDDAExtractor 16.0.6.1
#
DISCID=000db514
DTITLE=Μενιδιάτης Μιχάλης - Τραγούδια 45 στροφές-Μενιδιάτης Μιχάλης 4
DYEAR=2000
DGENRE=Λαϊκή
TTITLE0=Μενιδιάτης Μιχάλης-Γεωργούτη Βούλα-Καλδάρας Απ. - Μακρυά αγάπη μου, μα
TTITLE0=κρυά [1968,Απ. Καλδάρας-Ουρ. Λιανδράκη]
TTITLE1=Μενιδιάτης Μιχάλης-Γκίκα Βούλα - Χριστέ και Παναγιά [1964, Γ. Κλουβάτο
TTITLE1=ς-Ν. Δαλέζιος]
TTITLE2=Μενιδιάτης Μιχάλης-Γκίκα Βούλα - Το μεγάλο μου πάθος [1971, Μ. Μενιδιά
TTITLE2=της]
TTITLE3=Μενιδιάτης Μιχάλης - Τό 'σταξες είχες δεν είχες [1969, Κ. Καρουσάκης-Ε
TTITLE3=Παπαγιαννοπούλου] 
TTITLE4=Μενιδιάτης Μιχάλης - Εγώ είμαι ένας προδομένος [1968, Α. Καλδάρας]
TTITLE5=Μενιδιάτης Μιχάλης-Γεωργούτη Βούλα-Κλειδωνιάρης Αντ. - Μαλώνουνε δυό κ
TTITLE5=ότες [1968, Τ. Σούκας-Η. Παπασιδέρης]
TTITLE6=Μενιδιάτης Μιχάλης-Λαμπράκη Χαρούλα - Μεγάλη αδικία [1967, Ε. Παπαγιαν
TTITLE6=νοπούλου]
TTITLE7=Μενιδιάτης Μιχάλης - Και τι δεν κάνω να με μισήσεις [1967, Θ. Σοφός]
TTITLE8=Μενιδιάτης Μιχάλης - Η αγάπη δεν πουλιέται [1966, Χ. Κολοκοτρώνης]
TTITLE9=Μενιδιάτης Μιχάλης-Γεωργούτη Βούλα - Παλαμάκια-παλαμάκια [1967, Ε. Παπ
TTITLE9=αγιαννοπούλου]
TTITLE10=Μενιδιάτης Μιχάλης-Γεωργούτη Βούλα - Σε θέλω κοντά μου [1968, Τ. Σούκ
TTITLE10=ας-Η. Παπασιδέρης]
TTITLE11=Μενιδιάτης Μιχάλης - Αλήθεια [1968, Γ. Κοινούσης]
TTITLE12=Μενιδιάτης Μιχάλης-Γκίκα Βούλα - Σαράντα μέρες περπατώ [1969, Ν. Καρα
TTITLE12=νικόλας]
TTITLE13=Μενιδιάτης Μιχάλης-Λαμπράκη Χαρούλα - Στην πόρτα μου θα ξανάρθεις [19
TTITLE13=67, Γ. Καραμπεσίνης]
TTITLE14=Μενιδιάτης Μιχάλης - Όλοι ζηλεύουν [1967, Γ. Λαύκας]
TTITLE15=Μενιδιάτης Μιχάλης - Τώρα πού 'φυγες [1969, Α. Ρεπάνης-Κ. Ψυχογιός] 
TTITLE16=Μενιδιάτης Μιχάλης - Δεν καταδέχεσαι τον έρωτά μου [1966, Κ. Παπαδόπο
TTITLE16=υλος-Η. Παπασιδέρης]
TTITLE17=Μενιδιάτης Μιχάλης-Γκίκα Βούλα - Όλοι μάς μισούνε [1963, Γ. Κόρος-Ν. 
TTITLE17=Δαλέζιος]
TTITLE18=Μενιδιάτης Μιχάλης-Λαμπράκη Χαρούλα - Το μπουζουκάκι [1967, Α. Κατινά
TTITLE18=ρης-Ε. Παπαγιαννοπούλου]
TTITLE19=Μενιδιάτης Μιχάλης - Αν σε πίκρανα μετάνιωσα [1966, Γ. Καραμπεσίνης]
EXTD=
EXTT0=
EXTT1=
EXTT2=
EXTT3=
EXTT4=
EXTT5=
EXTT6=
EXTT7=
EXTT8=
EXTT9=
EXTT10=
EXTT11=
EXTT12=
EXTT13=
EXTT14=
EXTT15=
EXTT16=
EXTT17=
EXTT18=
EXTT19=
PLAYORDER=
